<svg width="38" height="38" viewBox="0 0 38 38" fill="none" xmlns="http://www.w3.org/2000/svg">
<path id="Vector" d="M37.1994 33.3604C37.7091 33.8701 37.9955 34.5613 37.9955 35.2822C37.9955 36.003 37.7091 36.6943 37.1994 37.204C36.6897 37.7137 35.9983 38 35.2775 38C34.5566 38 33.8653 37.7137 33.3556 37.204L19 22.8447L4.63991 37.1994C4.13019 37.7091 3.43885 37.9955 2.718 37.9955C1.99714 37.9955 1.30581 37.7091 0.796083 37.1994C0.28636 36.6898 7.59547e-09 35.9985 0 35.2776C-7.59547e-09 34.5568 0.28636 33.8655 0.796083 33.3558L15.1562 19.0011L0.800605 4.64189C0.290881 4.1322 0.00452225 3.44091 0.00452225 2.7201C0.00452226 1.99928 0.290881 1.30799 0.800605 0.798296C1.31033 0.288603 2.00166 0.00226057 2.72252 0.00226056C3.44338 0.00226055 4.13471 0.288603 4.64443 0.798296L19 15.1575L33.3601 0.796035C33.8698 0.286342 34.5611 -1.20088e-08 35.282 0C36.0029 1.20088e-08 36.6942 0.286342 37.2039 0.796035C37.7136 1.30573 38 1.99702 38 2.71783C38 3.43865 37.7136 4.12994 37.2039 4.63964L22.8438 19.0011L37.1994 33.3604Z" fill="#F5495C"/>
</svg>
